<svg width="878.1" height="141.75" viewBox="0 0 878.1 141.75" xmlns="http://www.w3.org/2000/svg">
	<g id="svgGroup" stroke-linecap="round" fill-rule="evenodd" font-size="9pt" stroke="#000" stroke-width="0.25mm" fill="none" style="stroke:#000;stroke-width:0.25mm;fill:none">
		<path d="M 65.85 26.4 L 63 27.45 Q 60 18.45 53.25 13.35 A 25.109 25.109 0 0 0 41.034 8.503 A 32.883 32.883 0 0 0 36.9 8.25 A 36.8 36.8 0 0 0 26.59 9.615 A 26.868 26.868 0 0 0 12.075 19.8 A 37.036 37.036 0 0 0 6.911 30.108 Q 3.6 40.069 3.6 54.6 L 3.6 64.2 Q 3.6 87.45 12.075 99 A 27.521 27.521 0 0 0 31.513 110.209 A 41.051 41.051 0 0 0 36.9 110.55 Q 46.5 110.55 53.25 105.45 A 27.236 27.236 0 0 0 61.612 94.877 A 34.759 34.759 0 0 0 63 91.35 L 65.85 92.4 A 35.525 35.525 0 0 1 60.976 101.735 A 30.595 30.595 0 0 1 54.975 107.85 A 27.409 27.409 0 0 1 41.56 113.258 A 36.082 36.082 0 0 1 36.9 113.55 A 43.599 43.599 0 0 1 28.538 112.781 A 34.168 34.168 0 0 1 21.15 110.475 A 28.366 28.366 0 0 1 10.124 101.677 A 33.703 33.703 0 0 1 9.525 100.875 A 37.451 37.451 0 0 1 5.606 93.934 Q 3.675 89.534 2.4 84.075 A 83.579 83.579 0 0 1 0.802 74.671 Q 0.251 69.896 0.079 64.469 A 159.769 159.769 0 0 1 0 59.4 Q 0 48.094 1.48 39.331 A 75.561 75.561 0 0 1 2.4 34.725 Q 4.8 24.45 9.525 17.925 A 29.538 29.538 0 0 1 17.05 10.584 A 27.607 27.607 0 0 1 21.15 8.325 A 35.048 35.048 0 0 1 30.537 5.683 A 45.236 45.236 0 0 1 36.9 5.25 A 33.107 33.107 0 0 1 45.89 6.42 A 26.59 26.59 0 0 1 54.975 10.95 A 31.689 31.689 0 0 1 64.547 23.168 A 39.534 39.534 0 0 1 65.85 26.4 Z" id="0" vector-effect="non-scaling-stroke"/>
		<path d="M 232.95 67.5 L 193.35 67.5 L 193.35 64.5 L 232.95 64.5 L 232.95 67.5 Z" id="2" vector-effect="non-scaling-stroke"/>
		<path d="M 366.9 141.75 L 366.9 34.35 L 370.05 34.35 L 370.05 46.05 L 370.5 46.05 A 21.671 21.671 0 0 1 372.082 43.403 A 28.908 28.908 0 0 1 373.8 41.175 A 21.168 21.168 0 0 1 377.807 37.549 A 24.533 24.533 0 0 1 378.9 36.825 A 26.865 26.865 0 0 1 383.002 34.745 A 33.465 33.465 0 0 1 385.8 33.75 A 26.377 26.377 0 0 1 390.38 32.796 A 35.417 35.417 0 0 1 394.65 32.55 A 35.551 35.551 0 0 1 404.56 33.858 A 26.226 26.226 0 0 1 417.9 42.675 Q 426.15 52.8 426.15 73.05 Q 426.15 85.736 422.913 94.448 A 31.383 31.383 0 0 1 417.9 103.425 Q 409.65 113.55 394.65 113.55 A 34.993 34.993 0 0 1 390.032 113.259 A 26.092 26.092 0 0 1 385.8 112.35 A 32.046 32.046 0 0 1 381.698 110.787 A 25.866 25.866 0 0 1 378.9 109.275 Q 375.9 107.4 373.8 105 A 22.965 22.965 0 0 1 371.551 101.98 A 19.128 19.128 0 0 1 370.5 100.05 L 370.05 100.05 L 370.05 141.75 L 366.9 141.75 Z M 422.7 76.65 L 422.7 69.45 Q 422.7 53.55 415.5 44.475 A 23.333 23.333 0 0 0 400.694 35.899 A 35.009 35.009 0 0 0 394.65 35.4 Q 389.85 35.4 385.35 36.9 A 26.455 26.455 0 0 0 379.753 39.494 A 23.259 23.259 0 0 0 377.475 41.1 Q 374.1 43.8 372.075 47.55 Q 370.05 51.3 370.05 55.8 L 370.05 90.3 A 17.321 17.321 0 0 0 371.387 97.117 A 16.718 16.718 0 0 0 372.075 98.55 Q 374.1 102.3 377.475 105 A 24.52 24.52 0 0 0 383.569 108.541 A 28.858 28.858 0 0 0 385.35 109.2 Q 389.85 110.7 394.65 110.7 A 32.693 32.693 0 0 0 403.272 109.628 A 22.884 22.884 0 0 0 415.5 101.625 A 30.852 30.852 0 0 0 420.872 90.941 Q 422.129 86.624 422.522 81.488 A 63.477 63.477 0 0 0 422.7 76.65 Z" id="4" vector-effect="non-scaling-stroke"/>
		<path d="M 450.15 111.75 L 450.15 108.9 L 476.85 108.9 L 476.85 37.2 L 450.15 37.2 L 450.15 34.35 L 480 34.35 L 480 49.35 L 480.45 49.35 Q 481.8 46.2 483.675 43.5 A 19.15 19.15 0 0 1 488.048 39.031 A 21.693 21.693 0 0 1 488.4 38.775 A 21.51 21.51 0 0 1 492.346 36.578 A 27.369 27.369 0 0 1 495.15 35.55 A 25.53 25.53 0 0 1 499.103 34.689 Q 501.06 34.414 503.268 34.362 A 44.204 44.204 0 0 1 504.3 34.35 L 521.55 34.35 L 521.55 37.2 L 503.7 37.2 Q 499.05 37.2 494.775 38.7 Q 490.5 40.2 487.2 43.275 A 21.08 21.08 0 0 0 483.01 48.774 A 25.669 25.669 0 0 0 481.95 51 Q 480.137 55.323 480.01 61.202 A 41.433 41.433 0 0 0 480 62.1 L 480 108.9 L 513.9 108.9 L 513.9 111.75 L 450.15 111.75 Z" id="5" vector-effect="non-scaling-stroke"/>
		<path d="M 545.7 111.75 L 545.7 108.9 L 576.45 108.9 L 576.45 37.2 L 545.7 37.2 L 545.7 34.35 L 579.6 34.35 L 579.6 108.9 L 608.4 108.9 L 608.4 111.75 L 545.7 111.75 Z M 573.6 4.65 L 573.6 3.45 A 3.776 3.776 0 0 1 573.794 2.218 A 3.214 3.214 0 0 1 574.575 0.975 Q 575.487 0.063 577.645 0.004 A 11.147 11.147 0 0 1 577.95 0 A 9.412 9.412 0 0 1 579.061 0.061 Q 580.317 0.211 581.035 0.729 A 2.375 2.375 0 0 1 581.325 0.975 A 3.293 3.293 0 0 1 582.292 3.173 A 4.399 4.399 0 0 1 582.3 3.45 L 582.3 4.65 A 3.776 3.776 0 0 1 582.107 5.882 A 3.214 3.214 0 0 1 581.325 7.125 Q 580.414 8.037 578.256 8.096 A 11.147 11.147 0 0 1 577.95 8.1 A 9.412 9.412 0 0 1 576.839 8.039 Q 575.583 7.889 574.866 7.371 A 2.375 2.375 0 0 1 574.575 7.125 A 3.293 3.293 0 0 1 573.609 4.927 A 4.399 4.399 0 0 1 573.6 4.65 Z" id="6" vector-effect="non-scaling-stroke"/>
		<path d="M 640.35 111.75 L 637.2 111.75 L 637.2 34.35 L 640.35 34.35 L 640.35 45.45 L 640.8 45.45 Q 642.544 41.025 647.344 37.378 A 31.194 31.194 0 0 1 648.525 36.525 Q 653.048 33.412 660.285 32.737 A 45.436 45.436 0 0 1 664.5 32.55 A 36.041 36.041 0 0 1 672.118 33.304 Q 676.856 34.329 680.4 36.748 A 19.895 19.895 0 0 1 684 39.9 A 23.533 23.533 0 0 1 688.792 48.439 Q 689.95 51.982 690.367 56.284 A 52.64 52.64 0 0 1 690.6 61.35 L 690.6 111.75 L 687.45 111.75 L 687.45 61.8 A 50.594 50.594 0 0 0 686.973 54.587 Q 685.77 46.259 681.532 41.788 A 15.579 15.579 0 0 0 681.375 41.625 Q 675.3 35.4 664.05 35.4 Q 659.4 35.4 655.125 36.675 A 23.478 23.478 0 0 0 648.931 39.517 A 21.717 21.717 0 0 0 647.55 40.5 Q 644.25 43.05 642.3 46.95 Q 640.35 50.85 640.35 55.95 L 640.35 111.75 Z" id="7" vector-effect="non-scaling-stroke"/>
		<path d="M 786.45 111.75 L 748.05 111.75 A 6.262 6.262 0 0 1 746.329 111.534 Q 744.398 110.982 743.886 109.011 A 6.409 6.409 0 0 1 743.7 107.4 L 743.7 37.2 L 713.55 37.2 L 713.55 34.35 L 739.35 34.35 A 6.262 6.262 0 0 0 741.072 34.134 Q 743.002 33.582 743.515 31.611 A 6.409 6.409 0 0 0 743.7 30 L 743.7 7.05 L 746.85 7.05 L 746.85 34.35 L 786.45 34.35 L 786.45 37.2 L 746.85 37.2 L 746.85 108.9 L 786.45 108.9 L 786.45 111.75 Z" id="8" vector-effect="non-scaling-stroke"/>
		<path d="M 812.25 111.75 L 812.25 108.9 L 841.2 108.9 L 841.2 37.2 L 810.75 37.2 L 810.75 34.35 L 841.2 34.35 L 841.2 5.1 A 6.262 6.262 0 0 1 841.416 3.379 Q 841.969 1.448 843.939 0.936 A 6.409 6.409 0 0 1 845.55 0.75 L 878.1 0.75 L 878.1 3.6 L 844.2 3.6 L 844.2 34.35 L 878.1 34.35 L 878.1 37.2 L 844.2 37.2 L 844.2 108.9 L 874.65 108.9 L 874.65 111.75 L 812.25 111.75 Z" id="9" vector-effect="non-scaling-stroke"/>
	</g>
</svg>